<?xml version="1.0" standalone="no"?><!DOCTYPE svg PUBLIC "-//W3C//DTD SVG 1.1//EN" "http://www.w3.org/Graphics/SVG/1.1/DTD/svg11.dtd"><svg t="1717655846885" class="icon" viewBox="0 0 1024 1024" version="1.1" xmlns="http://www.w3.org/2000/svg" p-id="8151" xmlns:xlink="http://www.w3.org/1999/xlink" width="200" height="200"><path d="M324.832 475.712l-1.344-4.192-1.056-5.44-0.768-2.976v-12.256l1.312-4.832 1.344-5.12 1.728-5.312 2.336-5.952 3.104-6.24 4.384-6.176v-4.384l0.416-4.032 0.64-5.536 1.888-6.208 1.728-6.72 1.376-3.104 1.6-2.88 2.048-3.2 2.208-2.336V363.456l1.312-7.904 1.312-9.184 2.304-11.008 3.2-11.392 2.368-6.336 2.336-6.816 2.56-6.4 3.104-6.816 3.136-7.488 3.616-7.04 4.032-7.456 5.12-7.488 2.368-4.256 2.528-3.52 5.472-7.904 5.632-7.904 6.4-8.096 6.848-7.904 7.456-7.808 7.776-8 9.408-8.64 5.984-5.216 7.264-5.664 7.36-5.024 8-4.8 7.648-4.256 8.64-3.52 9.184-4.384 9.12-2.976 9.152-3.072 9.792-3.104 9.856-2.368 10.336-1.92 10.496-1.696 10.304-1.408 10.368-1.376 11.008-0.64h32.544l10.848 1.376 10.912 1.28 11.104 1.216 10.336 2.432 10.912 2.336 10.24 2.656 11.168 3.008 10.272 3.616 9.824 4.16 10.464 4.384 9.568 4.8 9.312 5.312 9.088 5.888 7.872 5.44 3.616 3.104 3.84 2.24 7.296 6.208 6.144 5.952 6.08 6.208 6.016 6.816 4.928 6.624 5.792 6.816 4.128 7.392 4.128 6.496 4.384 7.584 3.616 6.592 6.176 14.016 3.008 7.232 2.368 6.72 2.336 7.264 2.112 6.816 1.504 5.888 1.888 6.912 3.36 12.384 2.112 10.784 1.376 10.464 1.216 8.416 1.856 12.8 0.448 2.048 1.504 2.368 4.064 6.624 2.592 4.448 2.304 4.704 2.976 4.992 2.592 6.016 1.696 6.176 1.792 6.72 1.408 6.944 0.672 3.392 0.544 4.16v3.648l-0.544 3.648v4.48l-1.088 4.352-1.92 8.416-2.24 4.288-1.6 4.8v1.184l0.736 1.504 2.24 3.52 9.6 14.176 7.616 10.656 3.616 7.168 4.896 7.776 4.288 8.544 4.896 9.184 4.896 10.24 5.536 11.616 3.136 7.168 2.848 6.944 2.496 7.36 2.4 6.592 1.824 6.976 1.888 6.496 2.4 12.704 1.888 13.024 1.28 11.488v16.256l-0.864 5.76-1.248 9.952-1.696 8.928-2.656 8.096-0.992 3.328-1.824 3.936-1.568 2.784-2.048 3.424-1.824 2.144-2.304 2.752-2.08 2.24-2.208 1.92-2.656 1.152-2.368 1.184-1.92 0.64h-2.976l-1.952-0.64-3.616-1.792-1.696-1.184-1.728-1.28-1.888-1.696-1.92-1.92-3.2-3.52-3.776-5.024-2.976-5.12-2.944-4.16-2.912-4.8-4.064-8.544-4.576-8.864-0.544-0.32h-0.768l-1.888 1.376-1.088 2.368-1.76 2.88-3.136 8.64-4.704 12.288-6.048 14.72-4.544 7.36-4.768 7.68-5.632 8.64-6.016 8.448-3.072 3.84-3.712 4.16-8.576 8.416 0.768 0.736 1.152 1.216 4.288 2.528 17.792 8.544 7.776 4.384 7.424 4.256 7.328 5.344 6.528 5.568 3.2 2.432 2.368 2.88 2.4 3.296 2.08 3.648 1.088 2.976 1.344 3.648 0.544 3.072 0.64 3.648-0.64 2.432v2.464l-0.544 2.56-1.344 2.336-0.544 1.856-1.216 2.208-3.2 4.384-2.976 3.52-2.336 2.656-1.952 1.92-4.896 3.648-5.568 3.104-5.952 2.976-6.304 2.88-7.136 2.784-3.776 1.152-3.392 0.96-8.192 1.952-8.544 1.792-8.512 1.792-9.28 1.536-9.632 0.416-9.824 1.184H733.728l-11.008-0.64-10.272-0.96-11.008-1.536-10.944-1.152-11.552-1.6-11.2-2.784-10.88-2.112-10.88-3.104-11.104-3.968-10.912-3.296-5.728-1.888-5.12-1.856-3.232-1.28-3.2-0.64H597.632l-10.464-0.736-5.312-0.544-6.848-0.736-4.352 3.936-6.016 3.744-8.096 3.968-8.96 4.896-5.44 2.656-5.696 2.144-12.576 5.12-6.816 1.728-7.136 1.92-9.952 1.92-6.208 0.48-6.592 0.576-6.848 0.736-8 0.352H439.712l-18.432-0.352-17.888-1.792-9.088-1.28-8.736-1.312-8.512-1.248-8.544-1.728-7.904-2.56-7.904-1.792-7.136-2.912-6.752-2.656-6.272-3.008-5.408-3.296-5.472-3.936-1.824-1.92-2.432-2.368-1.856-2.016-1.664-2.336-1.504-2.368-1.184-2.336-1.696-4.992-0.64-2.592-0.736-2.88v-2.656l0.736-2.976v-3.04l0.64-2.976v-5.984l0.288-3.168 1.408-3.648 1.184-3.616 2.144-4.384 1.568-1.696 1.312-1.92 3.392-4.16 2.688-2.144 2.56-1.504 2.336-1.92 3.744-1.152 2.976-1.824 3.712-1.92 4.288-1.248 4.256-1.312 4.928-1.088 4.672-0.64 5.568-0.736 5.984-0.416 1.6-0.544h0.32l0.768-0.64V761.6l-1.088-1.504-3.2-1.472-8-6.944-5.344-4.288-6.208-5.408-6.272-6.08-6.528-7.808-7.424-8.736-2.816-4.704-3.744-4.928-3.168-5.664-2.88-6.176-3.872-5.856-2.528-6.752-3.008-6.72-3.008-7.456-2.208-7.136-2.048-8.864-0.64-0.352h-0.64l-0.288-0.64h-0.768l-1.28 0.64-0.64 0.352-0.864 1.472-0.32 1.824-0.672 1.6-1.12 2.656-3.68 6.528-1.888 3.936-3.008 3.424-3.2 4.16-3.488 4.576-3.744 4.064-4.352 3.968-4.096 3.712-4.448 2.912-4.928 3.072-4.672 1.824-5.568 1.376-5.44 0.544H236.8l-1.248-0.544-0.96-2.144-1.632-1.056-2.08-5.12-1.312-2.784-1.408-3.936-1.152-4.16-0.608-4.064-1.76-9.28-0.64-5.44V650.272l0.64-13.312 1.088-6.816 1.28-7.072 1.152-7.552 2.048-7.072 2.336-8.096 2.368-7.904 3.2-8.128 2.976-7.776 4.128-7.872 3.904-8.576 4.672-7.968 5.568-8.672 5.632-7.776 5.888-8.64 4.896-5.984 6.272-6.944 6.624-6.912 3.072-3.328 3.776-3.744 5.408-4.704 5.568-4.768 9.056-8.128 6.88-4.992z" fill="" p-id="8152"></path></svg>